<?xml version="1.0" encoding="UTF-8" standalone="no"?>
<svg
   xmlns:dc="http://purl.org/dc/elements/1.1/"
   xmlns:cc="http://creativecommons.org/ns#"
   xmlns:rdf="http://www.w3.org/1999/02/22-rdf-syntax-ns#"
   xmlns:svg="http://www.w3.org/2000/svg"
   xmlns="http://www.w3.org/2000/svg"
   xmlns:sodipodi="http://sodipodi.sourceforge.net/DTD/sodipodi-0.dtd"
   xmlns:inkscape="http://www.inkscape.org/namespaces/inkscape"
   id="svg2"
   sodipodi:docname="Spinner.svg"
   viewBox="0 0 302.08 301.61"
   sodipodi:version="0.32"
   version="1.1"
   inkscape:version="1.0.2 (e86c870879, 2021-01-15, custom)">
  <defs
     id="defs17" />
  <sodipodi:namedview
     id="base"
     bordercolor="#666666"
     inkscape:pageshadow="2"
     guidetolerance="10.0"
     pagecolor="#ffffff"
     gridtolerance="10.0"
     inkscape:window-height="1058"
     inkscape:window-maximized="1"
     inkscape:zoom="2.0183166"
     objecttolerance="10.0"
     showgrid="false"
     borderopacity="1.0"
     inkscape:current-layer="g3027"
     inkscape:cx="124.62946"
     inkscape:cy="132.916"
     inkscape:window-y="-6"
     inkscape:window-x="-6"
     inkscape:window-width="1920"
     inkscape:pageopacity="0.0"
     inkscape:document-rotation="0" />
  <g
     id="g3027"
     transform="translate(424.06,-492.01)">
    <g
       id="g3014">
      <path
         id="path1972"
         style="stroke:#000000;stroke-width:4.8;stroke-linecap:round;fill:#000000"
         inkscape:connector-curvature="0"
         d="m-273 494.41c-16.17 0-31.73 2.59-46.31 7.37 4.92 7.42 9.93 15.14 15.09 21.97 9.97-2.6 20.44-3.97 31.22-3.97 8.41 0 16.6 0.83 24.53 2.44 4.6-7.13 8.93-15.18 13.22-22.97-12.06-3.16-24.7-4.84-37.75-4.84z" />
      <path
         id="path1970"
         style="stroke:#000000;stroke-width:4.8;stroke-linecap:round;fill:#000000"
         inkscape:connector-curvature="0"
         d="m-196.41 515.66c-2.71 8.38-5.61 17-7.68 25.18 15.93 10.77 29.2 25.17 38.65 42 8.6-1.01 17.67-2.69 26.41-4.15-12.6-26.18-32.64-48.11-57.38-63.03z" />
      <path
         id="path1968"
         style="stroke:#000000;stroke-width:4.8;stroke-linecap:round;fill:#000000"
         inkscape:connector-curvature="0"
         d="m-356.84 520.31c-24.58 16.83-43.85 40.84-54.78 69 8.7 0.67 17.88 1.65 26.65 2.13 8.59-18.59 21.67-34.68 37.85-46.88-2.84-7.97-6.42-16.23-9.72-24.25z" />
      <path
         id="path1966"
         style="stroke:#000000;stroke-width:4.8;stroke-linecap:round;fill:#000000"
         inkscape:connector-curvature="0"
         d="m-126.47 618.22c-7.97 3.07-16.39 6.08-24.22 9.37 0.64 5.06 0.97 10.24 0.97 15.47 0 16.71-3.34 32.65-9.37 47.19 6.45 6.02 13.44 11.98 19.71 17.81 9.58-19.64 15-41.68 15-65 0-8.46-0.73-16.76-2.09-24.84z" />
      <path
         id="path1964"
         style="stroke:#000000;stroke-width:4.8;stroke-linecap:round;fill:#000000"
         inkscape:connector-curvature="0"
         d="m-421 628.94c-0.44 4.65-0.66 9.36-0.66 14.12 0 28.56 8.06 55.23 22.04 77.88 5.58-6.28 12.04-12.76 18.12-19.28-9.44-17.43-14.78-37.4-14.78-58.6 0-2.27 0.06-4.53 0.19-6.78-8.23-2.56-16.88-4.88-24.91-7.34z" />
      <path
         id="path1962"
         style="stroke:#000000;stroke-width:4.8;stroke-linecap:round;fill:#000000"
         inkscape:connector-curvature="0"
         d="m-184.03 728.34c-16.04 16.73-36.76 28.96-60.03 34.57-0.56 8.91-0.88 17.99-1.69 26.25 33.22-6.17 62.58-23.37 84.09-47.69-7.24-4.05-14.84-8.78-22.37-13.13z" />
      <path
         id="path1885"
         style="stroke:#000000;stroke-width:4.8;stroke-linecap:round;fill:#000000"
         inkscape:connector-curvature="0"
         d="m-353.34 736.53c-7.24 5.06-14.45 10.41-21.35 14.91 23.92 22.44 55.27 37.07 89.94 39.78-1.48-8.08-2.52-17.05-3.78-25.84-24.59-3.1-46.93-13.46-64.81-28.85z" />
    </g>
    <path
       style="fill:#ffffff;stroke-width:0.495462"
       d="M 21.867128,100.34341 C 15.190772,99.787715 9.6560489,99.278364 9.5677434,99.211517 9.1875372,98.923707 15.849085,84.092967 18.527277,79.264725 22.55988,71.994753 28.831709,62.603297 33.804585,56.388438 39.140256,49.720178 48.911239,39.89919 55.558571,34.523122 c 5.009497,-4.051458 12.448147,-9.464266 12.669975,-9.219437 0.501388,0.553359 11.112221,27.135584 11.112221,27.83829 0,0.08479 -1.950883,1.71383 -4.335296,3.620076 C 62.324685,66.899855 50.708361,81.201334 43.352469,95.73176 l -2.905501,5.73937 -3.220506,-0.0587 c -1.771278,-0.0323 -8.682978,-0.51334 -15.359334,-1.06904 z"
       id="path17"
       transform="translate(-424.06,492.01)" />
    <path
       style="fill:#ffffff;stroke-width:0.495462"
       d="M 116.11688,30.200275 C 112.54636,25.33138 101.83819,9.2999983 101.83819,8.8233997 c 0,-0.4661504 8.71711,-3.1258956 15.35933,-4.6864069 11.93414,-2.8037819 18.43665,-3.46837533 33.93918,-3.46877898 12.22695,-3.1839e-4 15.36622,0.15669107 21.06337,1.05347798 6.85958,1.0797634 18.13295,3.4564408 19.13197,4.0334454 0.55214,0.318891 -7.1091,14.5367788 -12.40701,23.0252068 -2.02399,3.242895 -2.59009,3.832111 -3.46963,3.611359 -6.1098,-1.533461 -11.65794,-1.998323 -24.07097,-2.016838 -13.67643,-0.0204 -17.9794,0.399739 -28.13668,2.747248 -2.25871,0.522025 -4.15386,0.941787 -4.21143,0.932804 -0.0576,-0.009 -1.37132,-1.743571 -2.91944,-3.854642 z"
       id="path19"
       transform="translate(-424.06,492.01)" />
    <path
       style="fill:#ffffff;stroke-width:0.495462"
       d="m 256.13459,90.734485 c -8.49924,-14.768867 -21.33598,-28.897715 -35.01383,-38.53822 -1.8394,-1.29646 -3.34437,-2.616797 -3.34437,-2.934082 0,-1.75319 8.38,-28.568419 8.92789,-28.568419 0.74938,0 14.4811,9.447267 19.07502,13.123401 10.39841,8.320981 22.3535,21.358471 29.8934,32.599896 4.91937,7.334429 12.90345,21.462 12.36729,21.883529 -0.19757,0.155333 -24.56288,4.09629 -27.97134,4.524216 l -2.54709,0.319781 z"
       id="path21"
       transform="translate(-424.06,492.01)" />
    <path
       style="fill:#ffffff;stroke-width:0.495462"
       d="m 280.18676,214.83954 c -2.85145,-2.59322 -7.97144,-7.25273 -11.37774,-10.35448 -3.4063,-3.10174 -6.12307,-5.86992 -6.03725,-6.1515 0.0858,-0.2816 1.03134,-2.90215 2.10116,-5.82345 5.70256,-15.57162 8.16393,-33.0606 6.97287,-49.54489 -0.33625,-4.65376 -0.43247,-8.6179 -0.21382,-8.8092 0.45807,-0.40076 0.98969,-0.61374 16.21825,-6.49748 6.24885,-2.41431 11.39946,-4.33716 11.44579,-4.27299 0.40219,0.55699 1.86137,13.68393 2.26105,20.34067 1.4094,23.47372 -3.58013,48.82525 -14.00429,71.15509 l -2.18157,4.67317 z"
       id="path23"
       transform="translate(-424.06,492.01)" />
    <path
       style="fill:#ffffff;stroke-width:0.495462"
       d="m 176.32016,295.36021 c 0.17477,-2.41544 0.55508,-8.62791 0.84514,-13.80549 0.7264,-12.96607 0.61433,-12.45937 2.84463,-12.86123 4.73498,-0.85316 17.69803,-5.67042 24.85933,-9.23808 11.57414,-5.7661 20.76408,-12.22851 30.77932,-21.64419 l 4.24697,-3.99273 5.91001,3.50216 c 3.2505,1.92619 9.06602,5.32383 12.92338,7.55031 l 7.01337,4.04814 -5.18236,5.52563 c -8.60968,9.17996 -19.04382,17.71942 -29.90153,24.47188 -16.55567,10.29604 -31.69973,16.15464 -52.96819,20.49116 l -1.68782,0.34414 z"
       id="path25"
       transform="translate(-424.06,492.01)" />
    <path
       style="fill:#ffffff;stroke-width:0.495462"
       d="m 138.25468,301.27633 c -29.71033,-2.66898 -58.37754,-14.13995 -81.255838,-32.51389 -4.930109,-3.95945 -10.983213,-9.57147 -10.652442,-9.87621 0.136252,-0.12552 2.923229,-2.02197 6.19328,-4.21433 3.270052,-2.19236 8.737724,-5.97585 12.150382,-8.40776 l 6.204833,-4.42164 3.456684,2.93719 c 8.549985,7.26504 23.128102,15.65159 34.525741,19.86209 7.72377,2.8533 17.87188,5.36274 26.28072,6.49874 1.29439,0.17487 2.35344,0.489 2.35344,0.69808 0,1.52258 3.57051,25.72983 4.22839,28.66756 0.18987,0.84785 0.0398,1.09485 -0.62685,1.0315 -0.48207,-0.0458 -1.76833,-0.16341 -2.85834,-0.26133 z"
       id="path27"
       transform="translate(-424.06,492.01)" />
    <path
       style="fill:#ffffff;stroke-width:0.495462"
       d="M 22.933208,230.46427 C 12.187822,213.42303 4.7744388,192.93941 1.7124936,171.83017 0.50685948,163.51846 -0.02541053,147.20322 0.67177984,139.93003 c 0.28324847,-2.95489 0.58705916,-5.4432 0.67513496,-5.52958 0.1482791,-0.14543 15.2003042,4.16764 24.4970172,7.01948 l 4.02292,1.23406 0.271312,10.49034 c 0.149221,5.76969 0.633473,12.8314 1.076115,15.69269 1.900387,12.28434 5.919622,25.20599 10.976652,35.28942 1.467995,2.9271 2.669082,5.49564 2.669082,5.70788 0,0.21223 -2.954195,3.50816 -6.564877,7.32429 -3.610682,3.81614 -8.271243,8.80396 -10.356802,11.08406 l -3.791925,4.14563 z"
       id="path29"
       transform="translate(-424.06,492.01)" />
  </g>
  <metadata
     id="metadata16">
    <rdf:RDF>
      <cc:Work>
        <dc:format>image/svg+xml</dc:format>
        <dc:type
           rdf:resource="http://purl.org/dc/dcmitype/StillImage" />
        <cc:license
           rdf:resource="http://creativecommons.org/licenses/publicdomain/" />
        <dc:publisher>
          <cc:Agent
             rdf:about="http://openclipart.org/">
            <dc:title>Openclipart</dc:title>
          </cc:Agent>
        </dc:publisher>
      </cc:Work>
      <cc:License
         rdf:about="http://creativecommons.org/licenses/publicdomain/">
        <cc:permits
           rdf:resource="http://creativecommons.org/ns#Reproduction" />
        <cc:permits
           rdf:resource="http://creativecommons.org/ns#Distribution" />
        <cc:permits
           rdf:resource="http://creativecommons.org/ns#DerivativeWorks" />
      </cc:License>
    </rdf:RDF>
  </metadata>
</svg>
